<?xml version="1.0" encoding="iso-8859-1"?>
<!-- Uploaded to: SVG Repo, www.svgrepo.com, Generator: SVG Repo Mixer Tools -->
<svg version="1.1" id="Layer_1" xmlns="http://www.w3.org/2000/svg" xmlns:xlink="http://www.w3.org/1999/xlink" 
	 viewBox="0 0 512 512" xml:space="preserve">
<circle style="fill:#FFC91B;" cx="256" cy="256" r="256"/>
<path style="fill:#EAA22F;" d="M262.384,511.919C400.818,508.531,512,395.25,512,256c0-10.23-0.619-20.313-1.786-30.23
	L341.333,56.889l-3.572,14.222h-25.269v100.614l-48.821,194.403l-106.796,40.283L262.384,511.919z"/>
<rect x="192.215" y="73.697" style="fill:#273B7A;" width="13.791" height="352.97"/>
<rect x="305.993" y="73.697" style="fill:#121149;" width="13.791" height="352.97"/>
<path style="fill:#273B7A;" d="M256,220.115c-16.851,0-30.561-13.709-30.561-30.561v-23.666c0-16.851,13.708-30.561,30.561-30.561
	s30.561,13.708,30.561,30.561v23.668C286.56,206.405,272.851,220.115,256,220.115z M256,149.118c-9.247,0-16.77,7.521-16.77,16.77
	v23.668c0,9.247,7.521,16.77,16.77,16.77c9.249,0,16.77-7.521,16.77-16.77v-23.668C272.768,156.639,265.247,149.118,256,149.118z"/>
<path style="fill:#121149;" d="M256,135.327v13.791c9.247,0,16.768,7.521,16.768,16.77v23.668c0,9.247-7.521,16.77-16.768,16.77
	v13.791c16.851,0,30.56-13.709,30.56-30.561v-23.668C286.56,149.035,272.851,135.327,256,135.327z"/>
<path style="fill:#386895;" d="M323.541,397.06H188.459c-10.287,0-18.627-8.339-18.627-18.627V258.148
	c0-47.588,38.579-86.168,86.168-86.168l0,0c47.588,0,86.168,38.579,86.168,86.168v120.286
	C342.168,388.72,333.827,397.06,323.541,397.06z"/>
<g>
	<path style="fill:#273B7A;" d="M256,171.98v225.08h67.541c10.287,0,18.627-8.339,18.627-18.627V258.148
		C342.168,210.558,303.59,171.98,256,171.98z"/>
	<path style="fill:#273B7A;" d="M196.046,361.269h119.906c8.49,0,15.372-6.882,15.372-15.372v-38.433
		c0-8.49-6.882-15.372-15.372-15.372H196.046c-8.49,0-15.372,6.882-15.372,15.372v38.433
		C180.674,354.387,187.557,361.269,196.046,361.269z"/>
</g>
<path style="fill:#121149;" d="M315.954,292.092H256v69.177h59.952c8.49,0,15.372-6.882,15.372-15.372v-38.433
	C331.326,298.974,324.443,292.092,315.954,292.092z"/>
<g>
	<rect x="199.508" y="309.544" style="fill:#FFEDB5;" width="112.985" height="17.239"/>
	<rect x="256" y="309.544" style="fill:#FFEDB5;" width="56.492" height="17.239"/>
</g>
<rect x="170.667" y="56.889" style="fill:#D35933;" width="170.667" height="28.444"/>
<rect x="256" y="56.889" style="fill:#B54324;" width="85.333" height="28.444"/>
<rect x="156.875" y="377.966" style="fill:#D35933;" width="198.249" height="28.444"/>
<rect x="256" y="377.966" style="fill:#B54324;" width="99.125" height="28.444"/>
</svg>